<svg xmlns="http://www.w3.org/2000/svg" width="10.107" height="15.729" viewBox="0 0 10.107 15.729">
  <g id="Group_644" data-name="Group 644" transform="translate(0)">
    <path id="Path_475" data-name="Path 475" d="M79.881,231.238H78.017l-2.383-4.9a8.73,8.73,0,0,1,1.64-.489l1.69,3.483.112.224h0l.1.214.509,1.049.1.214h0Z" transform="translate(-73.885 -225.851)" fill="#f1543f" fill-rule="evenodd"/>
    <path id="Path_476" data-name="Path 476" d="M94.792,274.671H92.857a.132.132,0,0,1-.132-.1l-.387-1.222a.549.549,0,0,1,.092-.5.555.555,0,0,1,.448-.224h1.894a.574.574,0,0,1,.458.224.517.517,0,0,1,.081.5l-.367,1.222a.178.178,0,0,1-.152.1Zm-1.843-.285H94.69l.336-1.12a.236.236,0,0,0-.041-.244.258.258,0,0,0-.224-.112H92.877a.3.3,0,0,0-.224.112.26.26,0,0,0-.041.244Z" transform="translate(-88.746 -267.522)" fill="#fff" fill-rule="evenodd"/>
    <path id="Path_477" data-name="Path 477" d="M69.485,282.925h0a.744.744,0,0,0,0-1.059h0a.73.73,0,0,1-.153-.825h0a.766.766,0,0,0-.418-.988h0a.741.741,0,0,1-.469-.693h0a.758.758,0,0,0-.754-.754h0a.776.776,0,0,1-.7-.468h0a.751.751,0,0,0-.978-.417h0a.77.77,0,0,1-.825-.153h0a.738.738,0,0,0-1.069,0h0a.731.731,0,0,1-.825.153h0a.75.75,0,0,0-.978.417h0a.744.744,0,0,1-.7.468h0a.759.759,0,0,0-.754.754h0a.751.751,0,0,1-.468.693h0a.752.752,0,0,0-.407.988h0a.777.777,0,0,1-.163.825h0a.743.743,0,0,0,0,1.059h0a.75.75,0,0,1,.163.825h0a.753.753,0,0,0,.407.988h0a.74.74,0,0,1,.468.692h0a.759.759,0,0,0,.754.754h0a.77.77,0,0,1,.7.469h0a.75.75,0,0,0,.978.417h0a.77.77,0,0,1,.825.153h0a.738.738,0,0,0,1.069,0h0a.73.73,0,0,1,.825-.153h0a.751.751,0,0,0,.978-.417h0a.77.77,0,0,1,.7-.469h0a.758.758,0,0,0,.754-.754h0a.75.75,0,0,1,.469-.692h0a.766.766,0,0,0,.418-.988h0a.744.744,0,0,1,.153-.825Z" transform="translate(-59.6 -271.723)" fill="#ffd05b" fill-rule="evenodd"/>
    <path id="Path_478" data-name="Path 478" d="M80.273,294.415A3.58,3.58,0,1,0,76.7,298a3.581,3.581,0,0,0,3.575-3.585Z" transform="translate(-71.64 -283.742)" fill="#f9b54c" fill-rule="evenodd"/>
    <path id="Path_479" data-name="Path 479" d="M101.915,226.34l-2.383,4.9H97.668l.1-.2.092-.214.519-1.049.1-.214.112-.224,1.69-3.483a8.863,8.863,0,0,1,1.63.489Z" transform="translate(-93.516 -225.851)" fill="#ff7058" fill-rule="evenodd"/>
  </g>
</svg>
