<svg id="Group_643" data-name="Group 643" xmlns="http://www.w3.org/2000/svg" width="11.355" height="14.106" viewBox="0 0 11.355 14.106">
  <path id="Path_466" data-name="Path 466" d="M291.168,129.69h-3.045a2.41,2.41,0,0,1,.031,2.037,5.048,5.048,0,0,0,2.974,0,2.392,2.392,0,0,1,.041-2.037Z" transform="translate(-283.968 -122.397)" fill="#f0b97d" fill-rule="evenodd"/>
  <path id="Path_467" data-name="Path 467" d="M253.483,145.812h0l-.214.092h0a.479.479,0,0,1-.1.051h0c-.03.02-.071.031-.1.051h0a.917.917,0,0,1-.1.051h0c-.03.01-.061.031-.091.041h0c-.031.02-.061.031-.092.051h0c-.031.01-.061.03-.092.041h0a.361.361,0,0,1-.092.041h0c-.031.021-.051.031-.082.051h0a.6.6,0,0,0-.081.041h0a.591.591,0,0,0-.082.041h0a.6.6,0,0,0-.081.041h0c-.03.01-.051.031-.081.041h0c-.02.01-.051.031-.071.041h0c-.02.01-.051.031-.071.041h0a.164.164,0,0,0-.071.041c-.02.01-.051.02-.071.031s-.041.031-.061.041h0a.483.483,0,0,0-.071.031h0l-.061.041-.061.031h0c-.02.01-.041.031-.061.041s-.03.02-.051.031l-.061.03h0c-.02.01-.031.02-.051.031s-.031.02-.051.03h0c-.02.01-.03.02-.051.031l-.051.03-.041.031-.051.031c-.01.01-.031.02-.041.031l-.041.031a.053.053,0,0,0-.041.02l-.041.03-.041.02h0l-.031.031-.041.02-.031.02-.031.031-.031.02h0l-.031.02-.03.02-.031.02-.02.02-.031.021h0l-.02.02-.02.02-.031.02-.02.01-.02.02-.02.01-.01.02-.021.01-.02.02-.01.01a1.929,1.929,0,0,0-.448.825,8.7,8.7,0,0,0,11.355,0,2.045,2.045,0,0,0-.448-.825,12.794,12.794,0,0,0-3.167-1.8v-.01l-.407-.183c-.071-.031-.143-.061-.2-.092l-1.456,2.862-1.436-2.862.377-.081-.417.092h0c-.153.071-.3.132-.438.2l-.02.01h0a2.419,2.419,0,0,0-.285.132Zm0,0-.214.092" transform="translate(-250.031 -136.37)" fill="#45a5ae" fill-rule="evenodd"/>
  <path id="Path_468" data-name="Path 468" d="M290.793,146.182l-.112-.061-1.456,2.862-1.436-2.862-.041.01h0l-.092.041,1.568,3.126Z" transform="translate(-283.552 -137.035)" fill="#fefefe" fill-rule="evenodd"/>
  <path id="Path_469" data-name="Path 469" d="M291.761,145.456l-.408-.061-2.108-.02-.377.081,1.436,2.862Z" transform="translate(-284.632 -136.371)" fill="#f0b97d" fill-rule="evenodd"/>
  <path id="Path_470" data-name="Path 470" d="M270.864,72.343c-.774-.143-.112,2.149.438,1.8l.306.886a6.5,6.5,0,0,0,1.467,2.088,2.155,2.155,0,0,0,1.65.01,5.857,5.857,0,0,0,1.507-2.108l.275-.876c.56.346,1.212-1.945.448-1.8a3.077,3.077,0,1,0-6.09,0Z" transform="translate(-268.277 -68.166)" fill="#fed198" fill-rule="evenodd"/>
  <path id="Path_471" data-name="Path 471" d="M273.584,68.832a7.447,7.447,0,0,1-.57-3.809,2.466,2.466,0,0,1,2.077-2.057s1.9-.529,2.566.519c0,0,1.7.092,1.67,1.589a9.044,9.044,0,0,1-.917,3.758s.367-1.884-.2-2.322c0,0,.275-1.069-.407-1.12a5.1,5.1,0,0,1-1.966.886,2.494,2.494,0,0,0,.988-.937,8.25,8.25,0,0,1-2.74,1.3,2.937,2.937,0,0,0,.672-1.12,7.462,7.462,0,0,1-1.1,1.232Z" transform="translate(-270.437 -62.832)" fill="#1f120e" fill-rule="evenodd"/>
  <path id="Path_472" data-name="Path 472" d="M322.573,146.868Z" transform="translate(-314.66 -137.702)" fill="#fff" fill-rule="evenodd"/>
  <path id="Path_473" data-name="Path 473" d="M318.277,146.4Z" transform="translate(-310.833 -137.286)" fill="#fff" fill-rule="evenodd"/>
</svg>
