<svg xmlns="http://www.w3.org/2000/svg" width="14.125" height="8.432" viewBox="0 0 14.125 8.432">
  <g id="Group_646" data-name="Group 646" transform="translate(0)">
    <g id="Group_645" data-name="Group 645" transform="translate(0 0)">
      <path id="Path_481" data-name="Path 481" d="M740.656,128.023h-1.233l.265-1.039h.7Z" transform="translate(-727.397 -121.464)" fill="#ff7058" fill-rule="evenodd"/>
      <rect id="Rectangle_628" data-name="Rectangle 628" width="0.244" height="3.096" transform="translate(12.526 2.77)" fill="#ff7058"/>
      <path id="Path_482" data-name="Path 482" d="M741.619,122.907a.489.489,0,1,0-.489.489.491.491,0,0,0,.489-.489Z" transform="translate(-728.481 -117.387)" fill="#324a5e" fill-rule="evenodd"/>
      <path id="Path_483" data-name="Path 483" d="M629.169,79.07l7.057-2.689,7.068,2.689-3.6,1.375V79.365c0-.794-1.8-1.161-3.473-1.161s-3.473.367-3.473,1.161v1.079Z" transform="translate(-629.169 -76.381)" fill="#324a5e" fill-rule="evenodd"/>
      <path id="Path_484" data-name="Path 484" d="M664.023,95.256c.255-.02.53-.031.815-.031s.571.01.815.031a7.389,7.389,0,0,1,2.75.56v-1.9c0-.815-1.843-1.191-3.565-1.191s-3.554.377-3.554,1.191v1.9a7.333,7.333,0,0,1,2.739-.56Z" transform="translate(-657.781 -90.938)" fill="#2b3b4e" fill-rule="evenodd"/>
      <path id="Path_485" data-name="Path 485" d="M668.206,127.505a.1.1,0,0,0-.112-.071,52.11,52.11,0,0,1-6.671,0,.094.094,0,0,0-.112.071,2.355,2.355,0,0,0-.122.733.113.113,0,0,0,.112.112h6.915a.113.113,0,0,0,.112-.112,1.841,1.841,0,0,0-.122-.733Z" transform="translate(-657.696 -121.864)" fill="#fff" fill-rule="evenodd"/>
      <path id="Path_486" data-name="Path 486" d="M667.462,133.816a.113.113,0,0,0-.112-.112h-2.994a.116.116,0,0,0-.112.122h-.927a.116.116,0,0,0-.112-.122h-2.994a.113.113,0,0,0-.112.112,2.42,2.42,0,0,0,.234,1.212.112.112,0,0,0,.1.061h.01c.9-.061,1.8-.092,2.689-.1l.529-.01.764.01c.886.01,1.792.041,2.688.1a.1.1,0,0,0,.112-.082,2.491,2.491,0,0,0,.234-1.191Z" transform="translate(-656.718 -127.451)" fill="#e6e9ee" fill-rule="evenodd"/>
      <path id="Path_487" data-name="Path 487" d="M687.2,139.231l.255.112-.55,1.253-.173-.305-.336.081.55-1.253Z" transform="translate(-680.154 -132.276)" fill="#f1543f" fill-rule="evenodd"/>
      <path id="Path_488" data-name="Path 488" d="M693.178,140.465l-.244.143.672,1.181.143-.306.336.041-.672-1.191Z" transform="translate(-685.978 -133.357)" fill="#f1543f" fill-rule="evenodd"/>
      <path id="Path_489" data-name="Path 489" d="M687.16,128.59h0a.157.157,0,0,0-.01-.214h0a.159.159,0,0,1-.041-.163h0a.143.143,0,0,0-.081-.183h0a.14.14,0,0,1-.1-.132h0a.165.165,0,0,0-.163-.143h0a.163.163,0,0,1-.143-.081h0a.134.134,0,0,0-.193-.071h0a.183.183,0,0,1-.163-.02h0a.136.136,0,0,0-.2.01h0a.138.138,0,0,1-.163.031h0a.148.148,0,0,0-.183.092h0a.151.151,0,0,1-.132.1h0a.142.142,0,0,0-.143.153h0a.136.136,0,0,1-.092.143h0a.154.154,0,0,0-.071.193h0a.136.136,0,0,1-.02.163h0a.157.157,0,0,0,.01.214h0a.159.159,0,0,1,.041.163h0a.14.14,0,0,0,.092.183h0a.175.175,0,0,1,.1.132h0a.148.148,0,0,0,.153.143h0a.162.162,0,0,1,.143.082h0a.134.134,0,0,0,.194.071h0a.178.178,0,0,1,.163.02h0a.137.137,0,0,0,.2-.01h0a.138.138,0,0,1,.163-.031h0a.166.166,0,0,0,.194-.092h0a.129.129,0,0,1,.122-.1h0a.15.15,0,0,0,.153-.153h0a.129.129,0,0,1,.082-.143h0a.144.144,0,0,0,.071-.194h0a.138.138,0,0,1,.02-.163Z" transform="translate(-679.105 -121.96)" fill="#ff7058" fill-rule="evenodd"/>
      <path id="Path_490" data-name="Path 490" d="M689.269,130.9a.693.693,0,1,0-.652.723.694.694,0,0,0,.652-.723Z" transform="translate(-681.479 -124.365)" fill="#fff" fill-rule="evenodd"/>
      <path id="Path_491" data-name="Path 491" d="M689.859,131.576a.612.612,0,1,0-.581.642.614.614,0,0,0,.581-.642Z" transform="translate(-682.15 -125.038)" fill="#ff7058" fill-rule="evenodd"/>
    </g>
  </g>
</svg>
