<svg xmlns="http://www.w3.org/2000/svg" width="14.125" height="6.569" viewBox="0 0 14.125 6.569">
  <g id="Group_641" data-name="Group 641" transform="translate(0 0)">
    <path id="Path_453" data-name="Path 453" d="M740.656,709.2h-1.233l.265-1.049h.7Z" transform="translate(-727.397 -702.629)" fill="#ff7058" fill-rule="evenodd"/>
    <rect id="Rectangle_624" data-name="Rectangle 624" width="0.244" height="3.086" transform="translate(12.527 2.78)" fill="#ff7058"/>
    <path id="Path_454" data-name="Path 454" d="M741.619,704.158a.489.489,0,1,0-.489.5.489.489,0,0,0,.489-.5Z" transform="translate(-728.481 -698.638)" fill="#324a5e" fill-rule="evenodd"/>
    <path id="Path_455" data-name="Path 455" d="M629.169,660.248l7.057-2.7,7.068,2.7-3.6,1.375v-1.08c0-.794-1.8-1.161-3.473-1.161s-3.473.367-3.473,1.161v1.08Z" transform="translate(-629.169 -657.549)" fill="#324a5e" fill-rule="evenodd"/>
    <path id="Path_456" data-name="Path 456" d="M664.023,676.507c.255-.01.53-.031.815-.031s.571.02.815.031a7.819,7.819,0,0,1,2.75.56v-1.894c0-.815-1.843-1.191-3.565-1.191s-3.554.377-3.554,1.191v1.894a7.759,7.759,0,0,1,2.739-.56Z" transform="translate(-657.781 -672.189)" fill="#2b3b4e" fill-rule="evenodd"/>
  </g>
</svg>
