<svg xmlns="http://www.w3.org/2000/svg" width="44" height="44" viewBox="0 0 44 44">
  <g id="telegram-svgrepo-com" transform="translate(0.053 0.049)">
    <rect id="Rectangle_885" data-name="Rectangle 885" width="44" height="44" transform="translate(-0.053 -0.049)" fill="#61a8de"/>
    <path id="Path_646" data-name="Path 646" d="M77.053,99.61,47.695,111.05a1.071,1.071,0,0,0,.086,2.024l7.46,2.2,2.784,8.834a1.281,1.281,0,0,0,2.137.511l3.857-3.938,7.568,5.555a1.579,1.579,0,0,0,2.48-.95l5.012-23.964A1.51,1.51,0,0,0,77.053,99.61Zm-3.681,5.318L59.735,116.987a.732.732,0,0,0-.243.467l-.525,4.667a.141.141,0,0,1-.276.026l-2.16-6.96a.733.733,0,0,1,.314-.84l16.1-9.988A.356.356,0,0,1,73.372,104.928Z" transform="translate(-42.483 -89.918)" fill="#fff"/>
  </g>
</svg>
