<svg xmlns="http://www.w3.org/2000/svg" width="44" height="44" viewBox="0 0 44 44">
  <g id="whatsapp-svgrepo-com" transform="translate(0.053 0.049)">
    <rect id="Rectangle_884" data-name="Rectangle 884" width="44" height="44" transform="translate(-0.053 -0.049)" fill="#1bd741"/>
    <g id="Group_1260" data-name="Group 1260" transform="translate(6.599 6.582)">
      <path id="Path_644" data-name="Path 644" d="M68.494,99.06l2.15-7.638a15.327,15.327,0,1,1,5.726,5.61Zm8.279-4.817.469.287a12.729,12.729,0,1,0-4.1-4.006l.316.492-1.238,4.4Z" transform="translate(-68.494 -68.321)" fill="#fff"/>
      <path id="Path_645" data-name="Path 645" d="M151.043,152.881l-.995-.054a1.2,1.2,0,0,0-.855.293,4.532,4.532,0,0,0-1.49,2.284c-.353,1.573.193,3.5,1.606,5.427a16.145,16.145,0,0,0,8.7,6.326,4.241,4.241,0,0,0,3.591-.444,3.212,3.212,0,0,0,1.4-2.039l.159-.742a.515.515,0,0,0-.288-.576l-3.363-1.55a.516.516,0,0,0-.624.153l-1.32,1.711a.378.378,0,0,1-.425.126,10.338,10.338,0,0,1-5.594-4.787.382.382,0,0,1,.048-.426l1.262-1.459a.515.515,0,0,0,.084-.54l-1.449-3.391A.516.516,0,0,0,151.043,152.881Z" transform="translate(-139.977 -144.685)" fill="#fff"/>
    </g>
  </g>
</svg>
